<svg id="svg" version="1.1" xmlns="http://www.w3.org/2000/svg" xmlns:xlink="http://www.w3.org/1999/xlink" width="400" height="358.43575418994413" viewBox="0, 0, 400,358.43575418994413"><g id="svgg"><path id="path0" d="M160.179 120.039 C 145.537 121.590,139.805 122.974,131.839 126.879 C 113.565 135.839,104.263 154.591,109.637 171.638 L 110.243 173.561 112.072 173.020 C 113.078 172.722,113.982 172.367,114.081 172.231 C 114.179 172.095,115.309 171.676,116.592 171.300 C 117.874 170.925,119.004 170.517,119.103 170.394 C 119.202 170.272,120.090 169.956,121.076 169.693 C 122.063 169.430,123.435 168.937,124.126 168.597 C 124.816 168.258,125.946 167.861,126.637 167.716 C 127.327 167.571,128.538 167.162,129.327 166.808 C 130.117 166.453,131.762 165.957,132.984 165.705 C 134.206 165.452,135.146 165.149,135.072 165.031 C 134.999 164.912,135.856 164.605,136.976 164.348 C 138.097 164.091,139.498 163.668,140.090 163.410 C 140.682 163.151,142.538 162.593,144.215 162.170 C 145.892 161.747,147.587 161.253,147.982 161.072 C 148.377 160.890,149.749 160.489,151.031 160.179 C 152.314 159.870,153.686 159.474,154.081 159.300 C 154.475 159.126,156.170 158.643,157.848 158.228 C 159.525 157.813,162.108 157.173,163.587 156.806 C 165.067 156.440,167.327 155.887,168.610 155.580 C 169.892 155.272,171.991 154.764,173.274 154.451 C 174.556 154.138,177.623 153.526,180.090 153.090 C 182.556 152.654,184.655 152.196,184.753 152.071 C 184.852 151.945,186.911 151.575,189.330 151.248 C 191.748 150.921,194.110 150.507,194.578 150.329 C 195.046 150.151,198.153 149.740,201.481 149.416 C 204.810 149.092,207.814 148.677,208.157 148.494 C 208.499 148.311,209.105 148.161,209.502 148.161 C 210.434 148.161,210.443 147.195,209.527 145.198 C 209.144 144.361,208.551 142.789,208.209 141.704 C 207.868 140.619,207.480 139.650,207.347 139.552 C 207.214 139.453,206.816 138.161,206.463 136.682 C 206.110 135.202,205.697 133.830,205.546 133.632 C 205.394 133.435,205.001 131.821,204.672 130.045 C 204.344 128.269,203.925 126.536,203.741 126.193 C 203.558 125.851,203.408 125.186,203.408 124.716 C 203.408 124.004,203.183 123.826,202.063 123.653 C 201.323 123.539,198.377 123.027,195.516 122.516 C 185.135 120.663,166.576 119.362,160.179 120.039 M213.094 127.692 C 213.094 128.469,212.973 129.180,212.825 129.272 C 212.552 129.440,212.842 139.480,213.274 144.810 L 213.512 147.738 225.411 147.537 C 237.422 147.335,251.172 147.871,251.420 148.551 C 251.486 148.732,252.021 148.879,252.610 148.879 C 253.941 148.879,261.510 149.927,262.242 150.212 C 262.906 150.471,262.799 150.444,266.726 151.340 C 271.154 152.351,275.228 153.461,275.874 153.834 C 276.170 154.005,277.381 154.442,278.565 154.806 C 279.749 155.170,281.040 155.662,281.435 155.900 C 281.830 156.138,282.785 156.534,283.558 156.779 C 284.331 157.025,285.502 157.543,286.159 157.931 C 287.051 158.457,287.353 158.513,287.349 158.152 C 287.344 157.656,282.757 154.551,278.924 152.450 C 277.740 151.801,276.529 151.076,276.233 150.838 C 275.216 150.021,265.025 144.765,259.372 142.143 C 253.325 139.338,243.397 135.300,238.744 133.754 C 237.561 133.360,236.269 132.887,235.874 132.703 C 235.480 132.518,234.108 132.059,232.825 131.682 C 231.543 131.305,229.121 130.577,227.444 130.063 C 221.992 128.394,214.286 126.301,213.543 126.287 C 213.258 126.281,213.094 126.795,213.094 127.692 " stroke="none" fill="#13a3ab" fill-rule="evenodd"></path><path id="path1" d="M264.215 67.705 C 263.623 67.793,262.906 68.054,262.622 68.283 C 262.210 68.614,262.166 68.597,262.406 68.199 C 262.641 67.808,262.518 67.743,261.847 67.903 C 261.374 68.016,260.058 68.220,258.924 68.356 C 257.789 68.492,256.861 68.716,256.861 68.854 C 256.861 68.993,255.327 69.395,253.453 69.748 C 251.578 70.101,250.045 70.498,250.045 70.631 C 250.045 70.764,249.076 71.160,247.892 71.511 C 246.709 71.863,245.740 72.284,245.740 72.448 C 245.740 72.611,245.180 72.850,244.495 72.979 C 243.810 73.107,242.801 73.587,242.253 74.046 C 241.704 74.504,240.877 74.998,240.415 75.143 C 239.952 75.288,238.880 75.875,238.031 76.447 C 237.182 77.020,236.348 77.489,236.178 77.489 C 236.007 77.489,235.666 77.812,235.420 78.206 C 235.173 78.601,234.736 78.924,234.449 78.924 C 233.909 78.924,232.962 80.299,233.122 80.851 C 233.172 81.023,232.967 81.070,232.666 80.954 C 232.336 80.828,231.969 81.024,231.742 81.448 C 231.534 81.836,231.132 82.152,230.848 82.152 C 230.563 82.152,230.048 82.596,229.703 83.139 C 229.358 83.682,228.870 84.255,228.618 84.412 C 228.367 84.570,228.161 84.937,228.161 85.228 C 228.161 85.520,227.758 85.911,227.265 86.099 C 226.771 86.286,226.368 86.677,226.368 86.966 C 226.368 87.256,226.085 87.706,225.740 87.967 C 225.119 88.436,224.443 89.362,223.962 90.404 C 223.825 90.700,223.572 91.103,223.399 91.300 C 222.905 91.865,221.418 94.405,220.774 95.785 C 220.452 96.475,220.069 97.121,219.923 97.220 C 219.777 97.318,219.379 98.245,219.039 99.278 C 218.699 100.312,218.288 101.240,218.125 101.340 C 217.963 101.440,217.632 102.370,217.390 103.407 C 217.148 104.443,216.665 105.937,216.318 106.726 C 215.971 107.516,215.478 109.372,215.223 110.852 C 214.967 112.332,214.644 113.623,214.505 113.722 C 214.071 114.029,213.114 123.609,213.408 124.707 C 213.646 125.601,213.921 125.783,215.452 126.060 C 216.424 126.235,217.300 126.486,217.399 126.617 C 217.498 126.748,218.951 127.145,220.628 127.498 C 222.305 127.851,223.839 128.256,224.036 128.396 C 224.233 128.537,225.605 128.952,227.085 129.319 C 228.565 129.685,229.857 130.084,229.955 130.205 C 230.054 130.326,231.345 130.729,232.825 131.102 C 234.305 131.474,235.596 131.881,235.695 132.005 C 235.794 132.130,236.924 132.539,238.206 132.915 C 239.489 133.290,240.619 133.694,240.717 133.812 C 240.816 133.929,241.906 134.326,243.139 134.693 C 244.372 135.060,245.381 135.466,245.381 135.594 C 245.381 135.723,246.154 136.026,247.098 136.268 C 248.042 136.510,249.616 137.101,250.596 137.581 C 251.575 138.060,252.508 138.458,252.668 138.464 C 253.446 138.494,272.966 148.073,273.658 148.764 C 273.919 149.025,274.298 149.238,274.501 149.238 C 274.833 149.238,279.026 151.661,279.462 152.104 C 279.561 152.205,280.287 152.608,281.076 153.001 C 281.865 153.394,282.592 153.815,282.691 153.938 C 282.789 154.060,283.395 154.429,284.036 154.757 C 284.677 155.086,285.202 155.473,285.202 155.617 C 285.202 155.761,285.668 156.085,286.237 156.337 C 287.919 157.081,289.037 158.190,288.463 158.545 C 288.123 158.755,288.658 159.179,290.268 159.978 C 291.526 160.602,293.283 161.503,294.170 161.981 C 295.058 162.459,295.987 162.854,296.233 162.860 C 296.480 162.865,296.682 163.027,296.682 163.219 C 296.682 163.412,297.206 163.837,297.848 164.165 C 298.489 164.493,299.143 164.981,299.300 165.250 C 299.458 165.520,299.902 165.740,300.287 165.740 C 300.672 165.740,300.987 165.901,300.987 166.099 C 300.987 166.296,301.211 166.457,301.486 166.457 C 301.761 166.457,302.080 166.702,302.195 167.001 C 302.309 167.300,302.811 167.699,303.309 167.889 C 303.808 168.078,304.215 168.399,304.215 168.601 C 304.215 168.803,304.522 168.969,304.897 168.969 C 305.616 168.969,305.917 166.707,305.303 165.919 C 305.149 165.722,304.896 164.753,304.740 163.767 C 304.584 162.780,304.397 161.731,304.325 161.435 C 304.252 161.139,304.105 160.253,303.999 159.467 C 303.892 158.681,303.679 157.954,303.525 157.853 C 303.260 157.678,303.028 156.858,302.561 154.455 C 302.280 153.008,301.243 150.673,300.881 150.673 C 300.718 150.673,300.670 150.536,300.773 150.370 C 301.035 149.945,300.296 147.419,299.748 146.871 C 299.221 146.344,295.385 145.273,295.088 145.570 C 294.978 145.680,294.888 145.593,294.888 145.377 C 294.888 144.903,291.028 143.402,290.557 143.693 C 290.374 143.806,290.224 143.663,290.224 143.376 C 290.224 143.073,289.468 142.581,288.430 142.207 C 287.444 141.853,286.637 141.455,286.637 141.323 C 286.637 141.192,285.910 140.807,285.022 140.467 C 284.135 140.128,283.408 139.721,283.408 139.563 C 283.408 139.223,280.852 137.928,280.422 138.050 C 280.259 138.096,280.211 137.997,280.315 137.828 C 280.419 137.660,279.907 137.142,279.176 136.678 C 277.582 135.664,273.663 131.275,273.244 130.033 C 273.079 129.546,272.797 129.148,272.616 129.148 C 272.435 129.148,272.287 128.987,272.287 128.789 C 272.287 128.012,273.082 128.526,275.238 130.695 C 277.324 132.793,278.529 133.650,279.193 133.510 C 279.341 133.479,279.462 133.665,279.462 133.925 C 279.462 134.426,281.626 135.605,282.545 135.605 C 282.845 135.605,283.006 135.744,282.902 135.913 C 282.719 136.208,285.864 137.399,286.827 137.399 C 287.084 137.399,287.348 137.555,287.414 137.745 C 287.541 138.114,292.193 139.193,293.656 139.193 C 294.136 139.193,294.529 139.361,294.529 139.566 C 294.529 139.996,294.205 139.982,306.726 140.084 C 315.657 140.156,320.359 140.595,320.359 141.355 C 320.359 141.495,321.327 141.881,322.511 142.213 C 323.695 142.546,324.664 142.952,324.664 143.116 C 324.664 143.596,326.048 143.820,326.233 143.370 C 326.325 143.144,326.414 143.242,326.429 143.587 C 326.446 143.959,326.740 144.215,327.149 144.215 C 327.530 144.215,328.054 144.424,328.315 144.679 C 328.576 144.934,329.354 145.362,330.045 145.631 C 330.735 145.900,331.469 146.322,331.675 146.570 C 331.881 146.817,332.365 147.075,332.751 147.142 C 333.137 147.209,333.534 147.364,333.632 147.485 C 334.027 147.970,335.524 148.251,335.236 147.786 C 335.058 147.498,335.102 147.423,335.355 147.579 C 335.574 147.715,335.679 148.022,335.588 148.263 C 335.489 148.523,336.111 148.963,337.128 149.353 C 338.066 149.712,339.114 150.156,339.457 150.339 C 340.247 150.762,343.423 150.775,343.874 150.357 C 344.062 150.184,344.822 149.848,345.564 149.611 C 347.054 149.135,348.901 147.051,348.578 146.210 C 348.451 145.878,348.549 145.753,348.846 145.867 C 349.340 146.056,350.382 144.032,350.203 143.229 C 350.148 142.982,350.334 142.780,350.616 142.780 C 351.157 142.780,352.287 140.742,352.287 139.766 C 352.287 139.451,352.448 139.193,352.646 139.193 C 353.267 139.193,353.035 136.176,352.304 134.742 C 351.477 133.119,346.311 127.953,345.819 128.257 C 345.632 128.373,345.575 128.218,345.693 127.911 C 345.810 127.605,345.728 127.354,345.509 127.354 C 345.291 127.354,345.111 127.152,345.109 126.906 C 345.107 126.659,343.456 124.843,341.441 122.870 C 339.425 120.897,337.772 119.166,337.767 119.023 C 337.753 118.613,334.740 115.516,334.356 115.516 C 334.165 115.516,333.779 115.072,333.497 114.529 C 332.703 113.002,329.650 109.946,329.007 110.034 C 328.686 110.078,328.626 110.027,328.870 109.918 C 329.201 109.770,329.169 109.509,328.741 108.855 C 328.428 108.378,328.004 108.092,327.798 108.220 C 327.591 108.347,327.526 108.284,327.653 108.080 C 327.942 107.611,326.515 105.752,326.074 106.024 C 325.895 106.135,325.847 105.969,325.967 105.655 C 326.087 105.342,325.948 104.809,325.659 104.471 C 324.792 103.461,324.561 102.573,324.338 99.387 C 324.143 96.594,324.060 96.337,323.297 96.158 C 322.842 96.052,322.504 95.803,322.547 95.605 C 322.589 95.408,322.119 94.987,321.501 94.669 C 320.883 94.351,320.468 94.001,320.579 93.891 C 320.689 93.781,320.461 93.520,320.072 93.312 C 319.383 92.943,319.080 92.708,316.365 90.423 C 315.649 89.821,314.887 89.327,314.674 89.327 C 314.460 89.327,314.110 89.000,313.896 88.600 C 313.682 88.200,313.361 87.962,313.184 88.072 C 313.007 88.181,312.510 87.796,312.080 87.215 C 311.651 86.634,310.998 86.080,310.629 85.983 C 310.260 85.887,309.849 85.510,309.714 85.146 C 309.579 84.782,309.311 84.378,309.118 84.249 C 308.924 84.119,309.558 83.179,310.527 82.160 C 311.495 81.140,312.343 80.149,312.412 79.956 C 312.481 79.764,313.087 79.073,313.758 78.422 C 315.295 76.929,314.782 75.387,312.735 75.348 C 312.390 75.342,312.108 75.205,312.108 75.044 C 312.108 74.652,309.675 73.337,308.387 73.033 C 307.821 72.899,307.153 72.586,306.904 72.337 C 306.655 72.087,305.544 71.666,304.436 71.400 C 303.328 71.134,302.422 70.801,302.422 70.660 C 302.422 70.519,300.928 70.116,299.103 69.765 C 297.278 69.413,295.684 68.973,295.561 68.785 C 295.438 68.598,293.985 68.383,292.332 68.308 C 290.679 68.232,289.327 68.156,289.327 68.139 C 289.327 67.746,266.559 67.352,264.215 67.705 M182.063 69.826 C 180.287 70.108,178.511 70.484,178.117 70.662 C 177.722 70.840,176.148 71.268,174.619 71.612 C 173.090 71.957,171.839 72.371,171.839 72.532 C 171.839 72.693,171.475 72.836,171.031 72.849 C 169.812 72.885,166.394 74.077,166.683 74.366 C 166.822 74.505,166.788 74.632,166.607 74.649 C 165.380 74.760,164.682 74.907,163.498 75.302 C 162.758 75.549,162.152 75.859,162.152 75.992 C 162.152 76.125,161.103 76.550,159.821 76.937 C 158.538 77.324,157.489 77.752,157.489 77.888 C 157.489 78.023,156.682 78.424,155.695 78.779 C 154.709 79.134,153.901 79.532,153.901 79.663 C 153.901 79.795,153.135 80.193,152.197 80.548 C 151.260 80.903,150.251 81.465,149.955 81.796 C 149.659 82.128,149.248 82.341,149.042 82.270 C 148.836 82.200,148.352 82.429,147.966 82.780 C 147.580 83.130,146.583 83.720,145.750 84.091 C 144.916 84.461,144.321 84.903,144.426 85.072 C 144.530 85.242,144.378 85.381,144.086 85.381 C 143.474 85.381,141.223 86.508,141.047 86.903 C 140.982 87.049,140.378 87.430,139.705 87.749 C 139.032 88.069,138.570 88.474,138.679 88.649 C 138.788 88.825,138.705 88.989,138.497 89.013 C 137.462 89.136,135.605 89.970,135.605 90.313 C 135.605 90.470,135.045 90.901,134.360 91.270 C 133.675 91.639,133.190 92.062,133.281 92.210 C 133.373 92.358,133.045 92.581,132.554 92.704 C 132.062 92.827,131.659 93.087,131.659 93.280 C 131.659 93.474,131.342 93.632,130.954 93.632 C 130.567 93.632,130.077 93.955,129.865 94.350 C 129.654 94.744,129.246 95.067,128.959 95.067 C 128.672 95.067,128.235 95.390,127.988 95.785 C 127.742 96.179,127.395 96.502,127.217 96.502 C 126.858 96.502,122.007 100.282,119.850 102.242 C 119.090 102.933,118.167 103.675,117.799 103.892 C 117.431 104.108,116.952 104.636,116.735 105.064 C 116.518 105.492,116.209 105.961,116.050 106.105 C 115.890 106.249,115.899 106.128,116.069 105.835 C 116.448 105.184,113.516 107.557,112.223 108.949 C 111.708 109.502,110.865 110.278,110.349 110.673 C 109.028 111.682,97.578 123.042,97.578 123.342 C 97.578 123.478,97.093 124.048,96.501 124.607 C 95.908 125.166,95.529 125.796,95.659 126.007 C 95.789 126.217,95.734 126.289,95.536 126.167 C 95.088 125.890,93.438 127.614,93.109 128.705 C 92.974 129.152,92.736 129.438,92.580 129.342 C 92.313 129.177,90.990 130.567,88.969 133.134 C 88.475 133.761,87.668 134.708,87.175 135.240 C 85.928 136.584,84.155 138.854,83.979 139.332 C 83.899 139.552,83.535 139.942,83.172 140.200 C 82.809 140.458,82.511 140.883,82.511 141.145 C 82.511 141.407,82.108 141.886,81.614 142.209 C 81.121 142.532,80.717 143.026,80.717 143.306 C 80.717 143.587,80.424 144.027,80.066 144.285 C 79.417 144.751,78.758 145.945,78.867 146.457 C 78.898 146.605,78.748 146.726,78.533 146.726 C 77.963 146.726,76.797 148.234,76.783 148.990 C 76.777 149.347,76.610 149.539,76.412 149.417 C 76.214 149.294,75.892 149.567,75.695 150.023 C 75.281 150.985,74.663 151.961,73.901 152.858 C 72.673 154.304,72.520 154.552,72.727 154.760 C 72.847 154.880,72.752 154.978,72.517 154.978 C 72.282 154.978,71.936 155.381,71.749 155.874 C 71.561 156.368,71.216 156.771,70.980 156.771 C 70.745 156.771,70.655 156.874,70.780 156.999 C 70.906 157.124,70.693 157.627,70.307 158.117 C 69.922 158.607,69.694 159.151,69.802 159.325 C 69.909 159.499,69.764 159.641,69.479 159.641 C 69.194 159.641,68.710 160.166,68.403 160.807 C 68.096 161.448,67.431 162.529,66.927 163.209 C 66.422 163.888,66.009 164.647,66.009 164.895 C 66.009 165.143,65.790 165.475,65.523 165.632 C 65.255 165.790,64.739 166.565,64.376 167.354 C 64.013 168.143,63.517 168.912,63.275 169.061 C 63.032 169.211,62.648 169.897,62.421 170.586 C 62.193 171.275,61.872 171.839,61.706 171.839 C 61.540 171.839,61.127 172.565,60.788 173.453 C 60.449 174.341,60.045 175.067,59.891 175.067 C 59.737 175.067,59.333 175.794,58.994 176.682 C 58.655 177.570,58.269 178.296,58.137 178.296 C 58.004 178.296,57.600 178.982,57.239 179.821 C 56.878 180.659,56.382 181.587,56.138 181.883 C 55.894 182.179,55.480 183.027,55.219 183.767 C 54.957 184.507,54.637 185.112,54.506 185.112 C 54.375 185.112,53.975 185.879,53.617 186.816 C 53.259 187.753,52.774 188.713,52.538 188.949 C 52.302 189.184,51.892 190.113,51.626 191.012 C 51.361 191.910,51.040 192.646,50.912 192.646 C 50.785 192.646,50.391 193.413,50.037 194.350 C 49.683 195.287,49.291 196.135,49.167 196.233 C 49.043 196.332,48.631 197.341,48.253 198.475 C 47.874 199.610,47.471 200.538,47.357 200.538 C 47.243 200.538,47.149 200.861,47.149 201.256 C 47.149 202.015,47.401 202.095,48.700 201.747 C 49.143 201.628,49.507 201.298,49.507 201.013 C 49.507 200.729,49.629 200.572,49.779 200.664 C 50.194 200.921,52.454 199.877,52.239 199.529 C 52.135 199.361,52.931 198.946,54.007 198.607 C 55.084 198.268,55.964 197.855,55.964 197.689 C 55.964 197.523,56.374 197.284,56.876 197.158 C 57.427 197.020,57.689 196.770,57.538 196.526 C 57.381 196.272,57.450 196.223,57.724 196.392 C 58.218 196.697,60.345 195.929,60.101 195.534 C 60.013 195.392,60.137 195.276,60.375 195.275 C 61.186 195.272,64.215 193.764,64.215 193.362 C 64.215 193.142,64.349 193.045,64.513 193.146 C 64.912 193.393,71.390 190.208,71.390 189.765 C 71.390 189.574,71.511 189.453,71.659 189.498 C 72.135 189.640,75.336 188.616,75.336 188.322 C 75.336 188.166,75.903 187.851,76.595 187.622 C 77.335 187.378,77.756 187.048,77.616 186.821 C 77.472 186.588,77.547 186.541,77.809 186.703 C 78.046 186.849,78.999 186.603,79.927 186.155 C 80.855 185.708,81.840 185.301,82.117 185.251 C 82.393 185.201,82.716 185.027,82.834 184.864 C 82.952 184.701,83.937 184.260,85.022 183.883 C 86.108 183.506,87.318 182.997,87.713 182.751 C 88.108 182.505,89.117 182.103,89.955 181.858 C 90.794 181.612,91.480 181.275,91.480 181.109 C 91.480 180.943,91.722 180.807,92.018 180.807 C 92.314 180.807,92.556 180.636,92.556 180.427 C 92.556 180.218,92.694 180.132,92.862 180.237 C 93.175 180.430,95.461 179.725,95.785 179.335 C 95.883 179.217,96.852 178.829,97.937 178.473 C 99.022 178.118,100.233 177.630,100.628 177.389 C 101.022 177.148,102.112 176.734,103.049 176.469 C 103.987 176.204,104.753 175.879,104.753 175.746 C 104.753 175.614,105.803 175.222,107.085 174.874 C 109.463 174.231,110.299 172.864,109.068 171.633 C 107.703 170.268,107.676 153.790,109.036 151.928 C 109.181 151.731,109.585 150.480,109.936 149.148 C 110.286 147.816,110.685 146.726,110.821 146.726 C 110.957 146.726,111.359 145.919,111.714 144.933 C 112.069 143.946,112.464 143.137,112.592 143.135 C 112.720 143.133,113.134 142.487,113.511 141.700 C 113.888 140.913,114.321 140.269,114.473 140.269 C 114.625 140.269,114.842 139.978,114.955 139.622 C 115.224 138.774,120.893 132.885,121.704 132.611 C 122.049 132.495,122.332 132.260,122.332 132.089 C 122.332 131.284,132.800 125.233,134.230 125.211 C 134.559 125.206,134.884 125.035,134.952 124.831 C 135.019 124.628,136.042 124.209,137.224 123.902 C 138.405 123.594,139.549 123.197,139.764 123.019 C 140.171 122.684,144.924 121.569,149.596 120.712 C 151.076 120.440,154.270 120.104,156.695 119.964 C 159.119 119.824,161.187 119.573,161.290 119.407 C 161.563 118.965,173.632 119.019,173.632 119.462 C 173.632 119.668,174.746 119.821,176.256 119.821 C 179.737 119.821,190.482 120.826,191.390 121.237 C 191.785 121.416,194.126 121.831,196.592 122.160 C 199.058 122.490,201.230 122.905,201.417 123.083 C 202.528 124.142,203.065 123.437,202.877 121.166 C 202.532 116.985,202.248 114.682,201.954 113.655 C 201.766 112.999,201.788 112.711,202.016 112.852 C 202.246 112.994,202.350 111.249,202.311 107.926 C 202.240 101.850,203.129 91.885,203.779 91.476 C 204.286 91.156,205.254 83.502,205.027 81.614 C 204.721 79.084,204.098 76.413,203.813 76.413 C 203.680 76.413,203.252 75.816,202.862 75.087 C 201.941 73.368,201.006 72.454,199.263 71.570 C 198.484 71.175,197.744 70.709,197.617 70.534 C 196.757 69.349,187.667 68.935,182.063 69.826 M318.246 101.629 C 318.856 102.093,318.788 104.395,318.166 104.395 C 317.991 104.395,317.848 104.735,317.848 105.151 C 317.848 106.018,316.408 105.876,315.447 104.915 C 314.981 104.449,314.213 104.232,313.453 104.352 C 313.305 104.376,313.184 104.233,313.184 104.036 C 313.184 103.839,312.942 103.677,312.646 103.677 C 312.350 103.677,312.108 103.534,312.108 103.360 C 312.108 102.927,313.747 101.883,314.427 101.883 C 314.730 101.883,314.978 101.722,314.978 101.525 C 314.978 101.017,317.551 101.100,318.246 101.629 M201.878 110.404 C 201.804 111.341,201.744 110.574,201.744 108.700 C 201.744 106.825,201.804 106.058,201.878 106.996 C 201.952 107.933,201.952 109.466,201.878 110.404 M352.534 137.668 C 352.444 138.013,352.370 137.731,352.370 137.040 C 352.370 136.350,352.444 136.067,352.534 136.413 C 352.625 136.758,352.625 137.323,352.534 137.668 M223.857 220.987 C 223.857 221.184,223.009 221.351,221.973 221.358 C 220.937 221.366,218.960 221.615,217.578 221.912 C 216.197 222.210,214.785 222.456,214.439 222.460 C 214.094 222.463,213.812 222.606,213.812 222.777 C 213.812 222.948,212.924 223.346,211.839 223.662 C 210.753 223.977,209.865 224.392,209.865 224.584 C 209.865 224.776,209.623 224.933,209.327 224.933 C 209.031 224.933,208.789 225.060,208.789 225.215 C 208.789 225.370,208.429 225.525,207.989 225.558 C 207.549 225.591,207.024 225.841,206.823 226.114 C 206.622 226.386,206.054 226.819,205.561 227.076 C 203.321 228.242,196.571 235.102,195.362 237.440 C 195.060 238.023,194.634 238.560,194.414 238.633 C 194.194 238.707,193.989 239.190,193.958 239.708 C 193.927 240.225,193.780 240.574,193.632 240.483 C 193.484 240.391,193.363 240.557,193.363 240.850 C 193.363 241.144,193.154 241.597,192.898 241.858 C 192.642 242.119,192.132 243.462,191.764 244.843 C 191.397 246.224,190.977 247.435,190.831 247.534 C 189.564 248.390,189.659 266.460,190.934 267.302 C 191.115 267.421,191.319 267.905,191.388 268.378 C 191.512 269.234,191.633 269.782,192.113 271.659 C 192.251 272.202,192.509 272.646,192.685 272.646 C 192.861 272.646,193.004 272.957,193.004 273.338 C 193.004 273.718,193.239 274.264,193.526 274.551 C 193.812 274.837,193.945 275.173,193.821 275.297 C 193.696 275.422,193.946 275.851,194.376 276.251 C 194.805 276.651,195.157 277.205,195.157 277.482 C 195.157 277.760,195.439 278.200,195.785 278.460 C 196.390 278.917,197.064 279.830,197.542 280.841 C 197.806 281.398,201.545 285.088,202.763 285.994 C 203.217 286.331,204.072 286.988,204.664 287.454 C 206.186 288.652,210.597 291.047,210.839 290.806 C 210.949 290.695,211.462 290.901,211.977 291.264 C 213.323 292.211,214.528 292.536,214.535 291.952 C 214.539 291.563,214.593 291.563,214.841 291.954 C 215.182 292.493,217.367 293.073,219.103 293.086 C 219.744 293.090,220.269 293.256,220.269 293.453 C 220.269 293.679,222.720 293.812,226.906 293.812 C 230.556 293.812,233.543 293.672,233.543 293.502 C 233.543 293.332,234.471 293.088,235.605 292.960 C 238.547 292.628,241.435 291.955,241.435 291.602 C 241.435 291.436,241.712 291.300,242.050 291.300 C 242.790 291.300,248.608 288.503,248.614 288.144 C 248.616 288.006,249.262 287.584,250.049 287.207 C 250.836 286.830,251.480 286.376,251.480 286.199 C 251.480 286.022,251.278 285.993,251.031 286.135 C 250.771 286.285,250.708 286.256,250.882 286.066 C 251.046 285.887,251.288 285.728,251.420 285.714 C 251.921 285.661,253.632 284.717,253.632 284.494 C 253.632 284.366,253.963 283.905,254.368 283.471 C 254.773 283.037,254.990 282.497,254.851 282.272 C 254.695 282.020,254.757 281.961,255.012 282.118 C 255.323 282.310,255.426 278.424,255.426 266.568 L 255.426 250.762 240.179 250.762 L 224.933 250.762 224.933 257.399 L 224.933 264.036 232.629 264.036 L 240.326 264.036 240.432 270.135 C 240.531 275.820,240.494 276.234,239.889 276.234 C 239.532 276.233,239.339 276.393,239.459 276.588 C 239.585 276.791,239.441 276.851,239.122 276.729 C 238.816 276.611,238.565 276.669,238.565 276.858 C 238.565 277.235,235.293 278.386,234.219 278.386 C 233.847 278.386,233.543 278.557,233.543 278.767 C 233.543 279.001,233.059 279.071,232.287 278.948 C 231.596 278.838,231.031 278.877,231.031 279.034 C 231.031 279.192,230.233 279.484,229.257 279.684 C 228.282 279.883,227.546 279.946,227.623 279.821 C 227.699 279.697,226.625 279.589,225.235 279.580 C 223.614 279.571,222.607 279.404,222.430 279.116 C 222.262 278.845,221.851 278.763,221.390 278.910 C 220.925 279.057,220.628 278.996,220.628 278.753 C 220.628 278.534,220.426 278.387,220.179 278.427 C 219.440 278.546,218.819 278.281,214.439 275.981 C 213.897 275.696,213.453 275.305,213.453 275.112 C 213.453 274.919,212.969 274.592,212.377 274.386 C 211.785 274.180,211.380 273.883,211.477 273.726 C 211.574 273.570,211.251 273.178,210.759 272.856 C 210.268 272.534,209.865 272.038,209.865 271.753 C 209.865 271.469,209.543 271.063,209.148 270.852 C 208.753 270.641,208.430 270.243,208.430 269.968 C 208.430 269.693,208.217 269.255,207.956 268.994 C 207.696 268.734,207.447 268.402,207.403 268.258 C 207.359 268.113,207.058 267.387,206.734 266.643 C 206.411 265.900,206.081 264.808,206.003 264.218 C 205.924 263.628,205.685 263.036,205.471 262.904 C 204.912 262.559,204.940 252.823,205.501 252.636 C 205.731 252.559,205.919 252.192,205.919 251.821 C 205.919 250.965,206.989 247.772,207.356 247.534 C 207.508 247.435,207.896 246.721,208.218 245.948 C 208.540 245.175,209.123 244.318,209.514 244.044 C 209.905 243.771,210.224 243.379,210.224 243.173 C 210.224 242.808,212.275 240.717,212.632 240.717 C 212.731 240.717,213.429 240.229,214.183 239.632 C 214.937 239.034,216.050 238.373,216.656 238.162 C 217.262 237.950,217.758 237.645,217.758 237.482 C 217.758 237.147,222.271 236.054,223.658 236.054 C 224.162 236.054,224.574 235.892,224.574 235.695 C 224.574 235.486,225.770 235.336,227.444 235.336 C 229.118 235.336,230.314 235.486,230.314 235.695 C 230.314 235.892,230.909 236.054,231.636 236.054 C 232.941 236.054,237.141 237.065,237.489 237.463 C 238.008 238.057,240.357 238.967,240.748 238.726 C 241.063 238.531,241.131 238.623,240.973 239.035 C 240.810 239.460,241.088 239.784,241.985 240.209 C 243.387 240.875,244.288 240.681,244.556 239.656 C 244.656 239.272,245.125 238.704,245.598 238.394 C 246.117 238.054,246.457 237.483,246.457 236.954 C 246.457 236.342,246.612 236.136,246.968 236.272 C 247.270 236.388,247.658 236.127,247.918 235.633 C 248.160 235.174,248.738 234.341,249.204 233.781 C 249.669 233.222,249.943 232.592,249.812 232.381 C 249.678 232.164,249.743 232.100,249.961 232.235 C 250.367 232.486,251.844 230.860,251.831 230.176 C 251.821 229.658,250.019 228.132,247.546 226.548 C 245.776 225.414,245.025 225.121,244.215 225.249 C 244.067 225.272,243.946 225.082,243.946 224.825 C 243.946 224.344,242.401 223.668,240.567 223.348 C 239.991 223.247,239.426 223.018,239.312 222.839 C 239.017 222.379,235.756 221.733,232.522 221.494 C 231.011 221.382,229.622 221.142,229.435 220.959 C 228.970 220.507,223.857 220.532,223.857 220.987 M67.351 224.069 C 67.035 224.386,66.987 290.628,67.303 291.450 C 67.593 292.207,82.941 292.324,82.843 291.570 C 82.811 291.323,82.804 286.743,82.827 281.393 L 82.870 271.665 91.390 271.455 C 100.018 271.242,102.826 270.931,103.319 270.134 C 103.527 269.796,103.636 269.808,103.786 270.184 C 103.946 270.585,104.049 270.576,104.355 270.135 C 104.561 269.839,104.937 269.575,105.190 269.548 C 105.443 269.522,105.731 269.469,105.830 269.432 C 105.928 269.394,106.389 269.293,106.854 269.208 C 108.131 268.971,112.319 266.530,112.088 266.157 C 111.977 265.977,112.137 265.830,112.444 265.830 C 113.141 265.830,115.874 263.397,115.874 262.777 C 115.874 262.525,116.119 262.225,116.418 262.110 C 116.717 261.996,117.127 261.534,117.328 261.085 C 117.530 260.636,118.088 259.623,118.568 258.834 C 119.048 258.045,119.544 256.713,119.671 255.874 C 119.798 255.036,120.027 254.350,120.179 254.350 C 120.652 254.350,120.836 252.047,120.406 251.501 C 120.086 251.093,120.105 251.047,120.494 251.281 C 121.092 251.641,120.928 240.841,120.329 240.423 C 120.138 240.289,119.693 239.247,119.341 238.108 C 118.990 236.969,118.562 236.124,118.390 236.231 C 118.217 236.337,117.960 236.235,117.817 236.004 C 117.655 235.742,117.713 235.680,117.971 235.840 C 118.603 236.231,118.452 235.620,117.668 234.619 C 117.282 234.126,116.963 233.594,116.959 233.437 C 116.946 232.996,112.902 229.035,112.197 228.775 C 111.852 228.647,111.570 228.357,111.570 228.131 C 111.570 227.896,111.262 227.799,110.852 227.907 C 110.457 228.010,110.224 227.949,110.334 227.771 C 110.444 227.593,110.081 227.248,109.527 227.004 C 108.973 226.761,108.439 226.470,108.341 226.357 C 108.071 226.050,104.406 224.933,103.666 224.933 C 103.310 224.933,102.952 224.731,102.870 224.484 C 102.702 223.981,67.847 223.573,67.351 224.069 M130.671 257.848 L 130.762 291.839 156.861 291.931 L 182.960 292.023 182.960 284.935 L 182.960 277.848 164.664 277.947 L 146.368 278.046 146.368 271.388 L 146.368 264.730 160.897 264.831 L 175.426 264.933 175.426 257.848 L 175.426 250.762 160.897 250.762 L 146.368 250.762 146.368 244.305 L 146.368 237.848 164.484 237.848 L 182.601 237.848 182.601 230.852 L 182.601 223.857 156.590 223.857 L 130.579 223.857 130.671 257.848 M289.746 224.096 C 289.614 224.227,289.507 224.631,289.507 224.993 C 289.507 225.354,289.373 225.650,289.209 225.650 C 289.045 225.650,288.533 226.780,288.072 228.161 C 287.610 229.543,287.119 230.673,286.980 230.673 C 286.771 230.673,286.300 232.135,286.138 233.287 C 286.116 233.442,285.924 233.684,285.710 233.825 C 285.497 233.966,285.014 234.969,284.637 236.054 C 284.260 237.139,283.816 238.126,283.649 238.246 C 283.483 238.367,283.341 238.609,283.334 238.785 C 283.328 238.960,283.168 239.507,282.979 240.000 C 282.790 240.493,282.614 241.179,282.587 241.525 C 282.560 241.870,282.411 242.152,282.255 242.152 C 282.100 242.152,281.973 242.475,281.973 242.870 C 281.973 243.265,281.816 243.587,281.624 243.587 C 281.433 243.587,281.018 244.475,280.702 245.561 C 280.387 246.646,280.006 247.534,279.855 247.534 C 279.497 247.534,278.721 250.075,278.960 250.463 C 279.062 250.628,278.975 250.762,278.766 250.762 C 278.557 250.762,278.386 251.004,278.386 251.300 C 278.386 251.596,278.258 251.839,278.101 251.839 C 277.945 251.839,277.505 252.767,277.124 253.901 C 276.744 255.036,276.232 256.171,275.988 256.424 C 275.744 256.677,275.439 257.484,275.310 258.218 C 275.182 258.951,274.853 259.731,274.579 259.950 C 274.305 260.169,274.046 260.774,274.003 261.295 C 273.960 261.816,273.805 262.242,273.660 262.242 C 273.515 262.242,273.290 262.807,273.160 263.498 C 273.031 264.188,272.789 264.753,272.624 264.753 C 272.459 264.753,272.044 265.641,271.702 266.726 C 271.360 267.812,270.931 268.700,270.748 268.700 C 270.566 268.700,270.513 268.950,270.630 269.256 C 270.748 269.563,270.702 269.725,270.529 269.618 C 270.355 269.511,270.108 269.982,269.980 270.664 C 269.852 271.347,269.548 272.112,269.303 272.365 C 269.059 272.618,268.541 273.794,268.152 274.978 C 267.762 276.161,267.267 277.319,267.050 277.549 C 266.834 277.780,266.450 278.708,266.197 279.612 C 265.943 280.516,265.629 281.256,265.499 281.256 C 265.368 281.256,264.951 282.184,264.572 283.318 C 264.194 284.453,263.741 285.481,263.566 285.603 C 263.391 285.726,263.224 286.235,263.194 286.735 C 263.164 287.235,263.018 287.569,262.870 287.478 C 262.722 287.387,262.601 287.585,262.601 287.919 C 262.601 288.252,262.262 289.073,261.849 289.743 C 260.467 291.978,260.600 292.018,269.377 292.018 L 277.252 292.018 277.504 290.872 C 277.642 290.242,277.992 289.490,278.281 289.201 C 278.570 288.912,278.735 288.303,278.648 287.847 C 278.561 287.390,278.620 287.098,278.779 287.196 C 278.938 287.294,279.270 286.684,279.517 285.840 C 279.763 284.996,280.120 284.199,280.309 284.069 C 280.498 283.939,280.678 283.535,280.707 283.172 C 280.737 282.809,280.953 282.159,281.188 281.728 C 281.422 281.297,281.614 280.691,281.614 280.382 C 281.614 280.073,281.755 279.821,281.926 279.821 C 282.098 279.821,282.442 279.094,282.691 278.206 L 283.143 276.592 296.639 276.597 C 309.565 276.603,311.427 276.737,310.877 277.628 C 310.741 277.847,310.801 278.027,311.010 278.027 C 311.219 278.027,311.390 278.350,311.390 278.744 C 311.390 279.139,311.516 279.462,311.671 279.462 C 311.825 279.462,311.988 279.906,312.032 280.448 C 312.077 280.991,312.273 281.489,312.468 281.554 C 312.663 281.620,313.076 282.548,313.387 283.617 C 313.698 284.686,314.121 285.561,314.327 285.561 C 314.534 285.561,314.618 285.883,314.515 286.278 C 314.412 286.673,314.462 286.996,314.627 286.996 C 314.792 286.996,315.191 287.906,315.515 289.019 C 316.432 292.175,316.016 292.045,324.914 291.935 L 332.735 291.839 332.776 291.031 C 332.799 290.587,332.690 290.224,332.536 290.224 C 332.381 290.224,332.143 289.700,332.007 289.058 C 331.872 288.417,331.464 287.327,331.103 286.637 C 330.021 284.572,327.892 279.464,327.892 278.932 C 327.892 278.660,327.672 278.216,327.402 277.946 C 327.132 277.676,326.798 277.059,326.660 276.575 C 326.129 274.711,325.644 273.739,325.340 273.927 C 325.165 274.035,325.010 273.912,324.995 273.653 C 324.949 272.863,324.732 271.903,324.458 271.272 C 324.315 270.943,324.137 270.357,324.063 269.971 C 323.989 269.585,323.771 269.172,323.580 269.053 C 323.388 268.935,322.982 268.000,322.678 266.975 C 322.374 265.950,322.009 265.112,321.867 265.112 C 321.726 265.112,321.397 264.432,321.138 263.601 C 320.879 262.770,320.285 261.276,319.818 260.283 C 319.352 259.289,318.862 258.031,318.729 257.489 C 318.596 256.946,318.355 256.502,318.193 256.502 C 318.031 256.502,317.640 255.614,317.325 254.529 C 317.009 253.444,316.630 252.556,316.481 252.556 C 316.332 252.556,315.992 251.789,315.725 250.852 C 315.458 249.915,314.901 248.584,314.487 247.895 C 314.074 247.206,313.724 246.480,313.710 246.281 C 313.649 245.442,313.085 243.946,312.828 243.946 C 312.675 243.946,312.467 243.583,312.365 243.139 C 312.138 242.147,311.276 239.886,311.031 239.641 C 310.587 239.197,309.955 237.803,309.955 237.267 C 309.955 236.942,309.659 236.173,309.298 235.558 C 308.936 234.943,308.426 233.753,308.164 232.915 C 307.902 232.076,307.573 231.390,307.433 231.390 C 307.293 231.390,306.970 230.623,306.716 229.686 C 306.462 228.749,305.876 227.257,305.414 226.371 C 304.952 225.484,304.574 224.556,304.574 224.308 C 304.574 223.821,290.226 223.616,289.746 224.096 M318.505 224.626 C 318.083 224.992,317.604 225.291,317.441 225.291 C 317.277 225.291,317.042 225.695,316.919 226.188 C 316.795 226.682,316.550 227.085,316.374 227.085 C 316.198 227.085,316.054 228.054,316.054 229.238 C 316.054 230.433,316.213 231.390,316.413 231.390 C 316.610 231.390,316.771 231.612,316.771 231.883 C 316.771 233.232,319.338 234.642,321.677 234.577 C 325.344 234.476,326.637 233.085,326.637 229.238 L 326.637 226.366 325.215 225.101 C 323.514 223.588,319.990 223.338,318.505 224.626 M323.932 226.435 C 324.335 226.867,324.664 227.361,324.664 227.533 C 324.664 227.705,324.796 227.763,324.958 227.663 C 325.242 227.487,325.171 228.881,324.805 230.630 L 324.626 231.485 323.853 230.655 C 323.338 230.102,323.224 229.777,323.513 229.681 C 324.267 229.430,324.028 227.061,323.174 226.320 C 322.749 225.952,322.581 225.650,322.801 225.650 C 323.021 225.650,323.530 226.004,323.932 226.435 M319.283 229.238 L 319.283 232.108 318.544 231.370 C 317.655 230.481,317.314 227.444,318.103 227.444 C 318.370 227.444,318.680 227.202,318.794 226.906 C 319.183 225.893,319.283 226.370,319.283 229.238 M321.585 227.662 C 322.365 227.961,322.296 228.399,321.435 228.624 C 320.903 228.763,320.717 228.635,320.717 228.128 C 320.717 227.373,320.765 227.347,321.585 227.662 M322.152 232.093 C 322.152 232.298,322.435 232.477,322.780 232.489 C 323.244 232.506,323.188 232.600,322.566 232.849 C 322.051 233.056,321.285 233.059,320.593 232.859 C 319.804 232.630,319.687 232.521,320.207 232.499 C 320.837 232.471,320.927 232.286,320.793 231.300 L 320.633 230.135 321.393 230.927 C 321.811 231.362,322.152 231.887,322.152 232.093 M98.229 238.581 C 99.079 238.777,100.119 239.257,100.538 239.648 C 100.958 240.039,101.507 240.359,101.759 240.359 C 102.011 240.359,102.383 240.669,102.586 241.048 C 102.789 241.427,103.165 241.952,103.421 242.214 C 107.391 246.273,102.904 257.727,97.668 256.900 C 97.422 256.861,97.220 256.998,97.220 257.204 C 97.220 257.452,94.790 257.578,90.045 257.578 L 82.870 257.578 82.870 247.892 L 82.870 238.206 89.776 238.215 C 93.574 238.220,97.378 238.384,98.229 238.581 M297.399 244.659 C 297.399 245.028,297.601 245.543,297.848 245.804 C 298.094 246.065,298.614 247.247,299.004 248.430 C 299.393 249.614,299.918 250.796,300.170 251.057 C 300.422 251.318,300.628 251.816,300.628 252.163 C 300.628 252.511,300.740 252.907,300.876 253.044 C 301.013 253.180,301.179 253.651,301.245 254.090 C 301.312 254.529,301.523 254.942,301.714 255.007 C 301.906 255.073,302.063 255.365,302.063 255.656 C 302.063 255.965,302.235 256.079,302.477 255.930 C 302.734 255.771,302.794 255.831,302.635 256.088 C 302.494 256.316,302.500 256.697,302.647 256.935 C 302.794 257.174,302.957 257.765,303.008 258.248 C 303.060 258.732,303.249 259.223,303.427 259.340 C 303.606 259.456,303.958 260.197,304.210 260.987 C 304.462 261.776,304.794 262.583,304.949 262.780 C 305.136 263.018,302.365 263.102,296.741 263.030 C 290.061 262.944,288.371 262.830,288.815 262.492 C 289.125 262.256,289.688 261.175,290.067 260.090 C 290.446 259.004,290.859 258.036,290.985 257.937 C 291.110 257.839,291.512 256.789,291.878 255.605 C 292.244 254.422,292.748 253.240,292.998 252.979 C 293.410 252.550,293.594 251.720,293.550 250.497 C 293.541 250.253,293.677 250.141,293.852 250.249 C 294.027 250.357,294.170 250.194,294.170 249.887 C 294.170 249.579,294.351 249.327,294.571 249.327 C 294.803 249.327,294.900 248.956,294.802 248.441 C 294.709 247.954,294.766 247.638,294.929 247.739 C 295.092 247.839,295.321 247.471,295.437 246.921 C 295.553 246.370,295.805 245.677,295.996 245.381 C 296.187 245.085,296.438 244.562,296.553 244.219 C 296.813 243.446,297.399 243.751,297.399 244.659 " stroke="none" fill="#041c5c" fill-rule="evenodd"></path><path id="path2" d="M201.744 108.700 C 201.744 110.574,201.804 111.341,201.878 110.404 C 201.952 109.466,201.952 107.933,201.878 106.996 C 201.804 106.058,201.744 106.825,201.744 108.700 M161.311 119.372 C 161.220 119.520,163.954 119.641,167.389 119.641 C 170.823 119.641,173.632 119.520,173.632 119.372 C 173.632 119.224,170.897 119.103,167.555 119.103 C 164.212 119.103,161.402 119.224,161.311 119.372 M148.068 120.882 C 147.326 121.026,146.620 121.243,146.499 121.364 C 146.223 121.640,148.809 121.247,149.776 120.866 C 150.654 120.520,149.897 120.528,148.068 120.882 M187.623 120.876 C 189.835 121.393,191.697 121.598,191.359 121.286 C 191.179 121.120,189.982 120.894,188.700 120.783 C 187.098 120.645,186.761 120.674,187.623 120.876 M140.359 122.702 C 139.915 122.880,139.552 123.101,139.552 123.192 C 139.552 123.390,141.719 122.795,141.992 122.522 C 142.287 122.227,141.258 122.340,140.359 122.702 M198.744 122.657 C 199.552 123.098,201.832 123.477,201.424 123.103 C 201.233 122.927,200.430 122.689,199.641 122.573 C 198.819 122.453,198.436 122.488,198.744 122.657 M213.094 125.022 C 213.094 125.516,213.233 125.919,213.403 125.919 C 213.573 125.919,213.635 125.516,213.541 125.022 C 213.446 124.529,213.307 124.126,213.232 124.126 C 213.156 124.126,213.094 124.529,213.094 125.022 M228.700 130.026 C 229.291 130.296,229.843 130.451,229.925 130.370 C 230.163 130.138,229.854 129.982,228.700 129.751 L 227.623 129.536 228.700 130.026 M234.439 131.820 C 235.031 132.090,235.583 132.245,235.665 132.164 C 235.903 131.932,235.594 131.776,234.439 131.545 L 233.363 131.330 234.439 131.820 M239.108 133.461 C 239.347 133.847,240.717 134.153,240.717 133.820 C 240.717 133.664,240.319 133.460,239.831 133.367 C 239.344 133.274,239.019 133.316,239.108 133.461 M352.370 137.040 C 352.370 137.731,352.444 138.013,352.534 137.668 C 352.625 137.323,352.625 136.758,352.534 136.413 C 352.444 136.067,352.370 136.350,352.370 137.040 M248.299 136.850 C 248.623 137.173,251.121 138.124,251.121 137.924 C 251.121 137.812,250.561 137.487,249.877 137.201 C 248.628 136.680,247.986 136.536,248.299 136.850 M115.990 138.206 C 115.591 138.650,115.135 139.256,114.978 139.552 C 114.676 140.122,114.758 140.044,116.211 138.386 C 116.687 137.843,116.995 137.399,116.896 137.399 C 116.798 137.399,116.390 137.762,115.990 138.206 M253.274 138.986 C 254.273 139.588,255.059 139.745,254.511 139.233 C 254.324 139.058,253.767 138.809,253.274 138.680 L 252.377 138.445 253.274 138.986 M313.991 140.158 C 314.336 140.248,314.901 140.248,315.247 140.158 C 315.592 140.067,315.309 139.994,314.619 139.994 C 313.928 139.994,313.646 140.067,313.991 140.158 M259.761 141.839 C 260.128 142.171,262.960 143.494,262.960 143.333 C 262.960 143.129,260.252 141.704,259.865 141.704 C 259.725 141.704,259.679 141.765,259.761 141.839 M110.370 147.518 C 110.078 148.633,110.301 148.690,110.786 147.625 C 111.011 147.131,111.056 146.726,110.886 146.726 C 110.716 146.726,110.484 147.083,110.370 147.518 M271.570 147.820 C 272.764 148.631,273.363 148.888,273.363 148.590 C 273.363 148.418,272.952 148.089,272.449 147.860 C 271.327 147.349,270.842 147.327,271.570 147.820 M274.469 149.355 C 275.079 149.832,277.309 151.054,277.309 150.911 C 277.309 150.678,274.982 149.238,274.606 149.238 C 274.449 149.238,274.387 149.290,274.469 149.355 M108.947 152.018 C 108.700 152.451,108.258 155.176,108.469 154.967 C 108.696 154.743,109.395 151.749,109.221 151.749 C 109.155 151.749,109.032 151.870,108.947 152.018 M281.096 153.215 C 281.388 153.689,282.691 154.334,282.688 154.004 C 282.686 153.849,282.282 153.535,281.790 153.307 C 281.299 153.079,280.986 153.038,281.096 153.215 M108.516 170.045 C 108.659 170.735,108.907 171.441,109.068 171.613 C 109.229 171.785,109.226 171.329,109.062 170.598 C 108.677 168.892,108.173 168.381,108.516 170.045 M153.250 265.022 C 157.133 265.080,163.591 265.080,167.599 265.022 C 171.608 264.964,168.430 264.917,160.538 264.917 C 152.646 264.917,149.366 264.964,153.250 265.022 M155.247 277.937 C 160.229 277.993,168.381 277.993,173.363 277.937 C 178.345 277.881,174.269 277.835,164.305 277.835 C 154.341 277.835,150.265 277.881,155.247 277.937 " stroke="none" fill="#041f64" fill-rule="evenodd"></path><path id="path3" d="M166.001 119.721 C 166.638 119.800,167.768 119.801,168.512 119.724 C 169.256 119.646,168.735 119.581,167.354 119.580 C 165.973 119.578,165.364 119.642,166.001 119.721 M158.482 120.081 C 159.127 120.160,160.095 120.159,160.634 120.077 C 161.173 119.995,160.646 119.930,159.462 119.932 C 158.278 119.934,157.837 120.001,158.482 120.081 M174.260 120.080 C 174.901 120.160,175.951 120.160,176.592 120.080 C 177.233 120.001,176.709 119.935,175.426 119.935 C 174.143 119.935,173.619 120.001,174.260 120.080 M154.713 120.437 C 155.259 120.519,156.066 120.517,156.507 120.432 C 156.948 120.347,156.502 120.279,155.516 120.282 C 154.529 120.285,154.168 120.354,154.713 120.437 M179.462 120.436 C 180.004 120.519,180.892 120.519,181.435 120.436 C 181.978 120.354,181.534 120.287,180.448 120.287 C 179.363 120.287,178.919 120.354,179.462 120.436 M144.933 121.973 C 144.223 122.201,144.185 122.260,144.753 122.260 C 145.148 122.260,145.874 122.131,146.368 121.973 C 147.078 121.746,147.115 121.686,146.547 121.686 C 146.152 121.686,145.426 121.815,144.933 121.973 M133.453 125.740 C 132.960 126.022,132.717 126.253,132.915 126.253 C 133.112 126.253,133.677 126.022,134.170 125.740 C 134.664 125.458,134.906 125.227,134.709 125.227 C 134.511 125.227,133.946 125.458,133.453 125.740 M212.516 134.350 C 212.517 136.915,212.574 137.917,212.643 136.577 C 212.712 135.237,212.712 133.138,212.642 131.913 C 212.572 130.688,212.515 131.785,212.516 134.350 M230.314 130.881 C 230.610 131.064,231.256 131.322,231.749 131.454 C 232.372 131.620,232.482 131.592,232.108 131.361 C 231.812 131.178,231.166 130.921,230.673 130.789 C 230.049 130.622,229.940 130.650,230.314 130.881 M119.103 135.426 C 117.633 136.906,116.511 138.117,116.610 138.117 C 116.709 138.117,117.992 136.906,119.462 135.426 C 120.932 133.946,122.054 132.735,121.955 132.735 C 121.856 132.735,120.573 133.946,119.103 135.426 M115.824 139.103 C 114.792 140.349,114.355 140.987,114.532 140.987 C 114.632 140.987,115.144 140.422,115.671 139.731 C 116.648 138.449,116.767 137.966,115.824 139.103 M254.709 140.090 C 255.202 140.372,255.767 140.602,255.964 140.602 C 256.161 140.602,255.919 140.372,255.426 140.090 C 254.933 139.808,254.368 139.577,254.170 139.577 C 253.973 139.577,254.215 139.808,254.709 140.090 M111.628 145.845 C 111.027 147.164,111.141 147.446,111.791 146.246 C 112.095 145.686,112.276 145.161,112.194 145.079 C 112.112 144.997,111.857 145.342,111.628 145.845 M276.233 150.834 C 276.233 150.932,276.717 151.263,277.309 151.570 C 277.901 151.876,278.386 152.045,278.386 151.947 C 278.386 151.848,277.901 151.517,277.309 151.211 C 276.717 150.905,276.233 150.735,276.233 150.834 M108.424 165.740 C 108.424 166.430,108.498 166.713,108.588 166.368 C 108.678 166.022,108.678 165.457,108.588 165.112 C 108.498 164.767,108.424 165.049,108.424 165.740 " stroke="none" fill="#0c6a8c" fill-rule="evenodd"></path><path id="path4" d="M162.242 119.719 C 162.785 119.801,163.673 119.801,164.215 119.719 C 164.758 119.637,164.314 119.569,163.229 119.569 C 162.143 119.569,161.700 119.637,162.242 119.719 M170.493 119.719 C 171.036 119.801,171.924 119.801,172.466 119.719 C 173.009 119.637,172.565 119.569,171.480 119.569 C 170.395 119.569,169.951 119.637,170.493 119.719 M178.210 120.074 C 178.657 120.160,179.302 120.157,179.645 120.067 C 179.988 119.977,179.623 119.907,178.834 119.911 C 178.045 119.915,177.764 119.989,178.210 120.074 M184.843 120.785 C 185.188 120.876,185.753 120.876,186.099 120.785 C 186.444 120.695,186.161 120.621,185.471 120.621 C 184.780 120.621,184.498 120.695,184.843 120.785 M196.622 122.460 C 196.704 122.530,197.336 122.691,198.027 122.818 C 198.910 122.980,199.123 122.944,198.744 122.696 C 198.258 122.377,196.266 122.155,196.622 122.460 M136.502 124.318 C 135.605 124.750,135.575 124.799,136.323 124.617 C 137.339 124.368,138.482 123.786,137.937 123.794 C 137.740 123.797,137.094 124.032,136.502 124.318 M118.386 135.785 C 117.514 136.673,116.882 137.399,116.981 137.399 C 117.079 137.399,117.873 136.673,118.744 135.785 C 119.616 134.897,120.248 134.170,120.149 134.170 C 120.051 134.170,119.257 134.897,118.386 135.785 M266.906 145.452 C 266.906 145.551,267.390 145.882,267.982 146.188 C 268.574 146.494,269.058 146.664,269.058 146.566 C 269.058 146.467,268.574 146.136,267.982 145.830 C 267.390 145.523,266.906 145.354,266.906 145.452 M108.090 159.283 C 108.090 160.368,108.157 160.812,108.239 160.269 C 108.321 159.726,108.321 158.839,108.239 158.296 C 108.157 157.753,108.090 158.197,108.090 159.283 M108.090 164.305 C 108.090 165.390,108.157 165.834,108.239 165.291 C 108.321 164.749,108.321 163.861,108.239 163.318 C 108.157 162.776,108.090 163.220,108.090 164.305 M108.346 167.743 C 108.349 168.318,108.506 169.031,108.695 169.327 C 108.929 169.694,108.968 169.408,108.818 168.430 C 108.546 166.657,108.339 166.355,108.346 167.743 " stroke="none" fill="#044976" fill-rule="evenodd"></path></g></svg>